<svg xmlns="http://www.w3.org/2000/svg" viewBox="0 0 7754.39 1668.73"><defs><style>.cls-1{fill:#1f2b38;}</style></defs><g id="Layer_2" data-name="Layer 2"><g id="Layer_1-2" data-name="Layer 1"><path class="cls-1" d="M117.49,1570.62c-.88,9.69-.88,14.1-1.47,22.62l-1.47,2c-52.28,0-56.69,0-111.91.88l-1.76-2.05c.59-23.79,1.47-59,1.47-110.44,0-45.24-.88-70.21-2.35-93.71l2-2c15.87-.29,18.8-.29,33.78-.88l1.77,1.76c-2.94,54.93-2.94,125.42-2.94,132.47,0,22.62.29,34.66.59,48.47,32.6,0,41.41-.3,80.48-1.47Z"/><path class="cls-1" d="M304.59,1545.06c-3.23,14.4-9.4,25.85-19.09,35.55-12.92,12.92-30.25,17.91-50.81,17.91-26.44,0-43.18-10-52.58-19.68-20-20.26-20.27-50.22-20.27-59.92,0-11.16.59-39.94,20.27-59.62,8.22-8.55,25.28-20.55,54.63-20.55,20,0,39.66,6.47,52.58,21.15,13.51,15.57,17.33,36.13,17.92,56.69C307.24,1526.56,306.65,1536.25,304.59,1545.06ZM266.7,1477.8c-5.58-9.11-15-16.74-31.43-16.74-5.58,0-22,.59-32.31,17-7.93,12-8.81,29.08-8.81,41.42,0,11.75.29,41.42,23.5,53.17a39.33,39.33,0,0,0,17.33,3.81c10.87,0,25-3.52,33.48-19.68,6.76-13.21,7.05-32.89,6.76-39.06C275.22,1510.4,274.05,1490.75,266.7,1477.8Z"/><path class="cls-1" d="M480.54,1560.34c-1.18,12.63-1.47,14.1-2.35,26.14l-2.06,2.06c-8.52,4.11-20,10-40.53,10-44.36,0-73.14-32-73.14-77.84,0-46.7,28.19-82,73.72-82,19.1,0,32.61,6.17,40.24,9.4l1.18,2.06c-1.18,10.57-1.47,14.39-2.06,23.2l-2.35,1.18c-9.69-7-20.85-11.46-32.6-11.46-24.38,0-45.82,18.8-45.82,56.4,0,40,22.61,54.34,45.53,54.34,20,0,32.31-10.28,37.89-14.69Z"/><path class="cls-1" d="M646.2,1534.75c0,36.43.29,39.66,1.76,58.75l-1.47,1.47c-13.8.29-16.15.59-29.67,1.17l-1.17-1.76.29-10.57c-5.58,4.4-18.8,15-41.12,15-29.37,0-49.93-20-49.93-49.06,0-39.36,32.89-52,85.77-58.15l5-.59c0-7.93,0-13.51-2.64-18.21-2.94-5.29-9.7-10.87-24.38-10.87-19.1,0-32.31,5.87-44.65,11.16l-2.35-1.47c.59-13.51.59-15.27.88-21.44l1.76-1.76c16.45-5.88,33.49-9.7,50.82-9.7,21.73,0,42.88,7.35,49,30.26,2.06,8.22,2.06,24.38,2.06,36.71Zm-32.9-21.44c-29.67,4.41-57.28,8.52-57.28,34.66,0,1.47,0,26.73,27.91,26.73a45.82,45.82,0,0,0,32-12.92v-49Z"/><path class="cls-1" d="M748.12,1595c-14.1.29-17,.59-30.84,1.17l-1.47-2.05c.59-20.86,1.47-47.29,1.47-103.69,0-40.53,0-84-2.94-121.6l1.47-1.77c14.39-2.35,17.33-2.93,32-6.17l1.76,2.06c-2.06,38.48-2.06,77.25-2.06,115.73,0,64.33.89,86.65,2.35,114.56Z"/><path class="cls-1" d="M971.39,1389.09c-.88,19.68-1.46,42.89-1.46,93.41,0,56.4.58,80.48,2.35,110.74l-1.77,2c-12.92.3-17,.3-32.6.88l-1.76-2.05c.58-17.92,1.17-33.49,1.17-71.38,0-44.35,0-88.41-2-132.47l1.46-2.35c12.93,0,17.63,0,32.61-.88Z"/><path class="cls-1" d="M1173.44,1595c-14.1.29-15.86.29-29.37,1.17l-2.06-2.05c0-3.23.29-6.46.29-9.7.3-14.39.3-28.78.3-43.17,0-45.24-.3-48.18-1.76-54.34-5.58-22.33-22.33-22.33-26.44-22.33-17.62,0-31.14,10.28-39.07,16.45-.29,51.11.3,77.84,2.35,112.21l-1.76,1.76c-14.39.29-16.74.29-30.84,1.17l-1.47-2.05c.29-16.45.88-32.31.88-54,0-47-2-72-3.52-91.64l1.76-2.06c14.69-2.64,17.33-3.23,31.13-5.87l2.06,2-.29,15.28c7.63-5.29,25.85-18.22,51.69-18.22,7.35,0,16.45,1.18,24.38,5.59a39.78,39.78,0,0,1,17,19.09c3.82,8.81,4.11,17.62,4.41,35.83v34.37c.88,34.37,1.17,47.59,2,58.75Z"/><path class="cls-1" d="M1311.2,1572.09c-.88,9.69-.88,11.75-1.18,20.27l-1.47,1.76a79.63,79.63,0,0,1-22,2.64c-7,0-25.55,0-34.66-15.27-5.28-8.52-5.28-15.57-5.28-50.23l.58-64.62c-10.28,0-10.57.29-21.14.59l-1.18-1.77c.59-9.4.59-11.75.59-21.14l1.76-1.77c6.46,0,10.28.3,20,0-.29-6.17-.29-12.63-.29-18.8q-.43-8.37-.88-16.74l1.47-2.06c13.22-3.23,16.45-4.11,30-8.22l2,1.47c-.88,19.38-1.17,23.2-1.17,44.65,12.34-.3,15.86-.3,32.6-.89l1.44,1.79c-.59,7.63-.88,10.87-.88,20.85l-1.47,1.76c-14.68-.29-16.45-.58-32-.58l-.59,54.63c.29,3.53.29,20.27.29,24.38,0,21.44,2.65,28.2,17.33,28.2a40.2,40.2,0,0,0,14.1-2.64Z"/><path class="cls-1" d="M1487.14,1559.46c-1.47,11.75-1.76,14.68-2.35,26.14l-1.76,2.06c-5,2.64-20.86,11.16-47,11.16-48.17,0-78.43-27.61-78.43-78.72,0-54.64,32.9-81.37,71.38-81.37,23.2,0,39.36,9.7,48.17,20.27,16.75,20,16.16,49.06,15.86,62l-2,1.76c-45.82-.29-53.76-.29-101.93,0,.3,10.28,1.18,24.68,11.16,36.72,12,14.39,28.79,15.86,37.9,15.86a76.65,76.65,0,0,0,25.55-4.41,73.85,73.85,0,0,0,21.15-12.92Zm-27.32-76.71c-5.87-16.15-18.8-22.91-32-22.91-16.44,0-35.83,11.16-38.77,40.54,35.54.29,46.71,0,73.73-.3C1462.47,1496,1462.17,1489.55,1459.82,1482.75Z"/><path class="cls-1" d="M1588.47,1559.46c7.64,2,45.24,11.16,53.46,13.8s35.84,11.16,35.84,43.18c0,25.26-21.44,52.29-68.44,52.29-43.77,0-66.39-21.15-66.39-46.12,0-21.44,14.69-33.49,26.15-42.59-6.17-2.65-8.23-3.53-13.81-6.17l-.59-3.52c9.11-13.22,12.63-18.51,20-30-19.68-7.94-28.2-26.15-28.2-44.07a56.78,56.78,0,0,1,6.17-26.14c14.1-27,43.47-28.49,59.63-28.49,4.7,0,10.57.29,16.44.29l7.35.3c16.74.29,23.2.29,44.35,0l1.47,1.76c-.88,10-.88,10-1.47,19.39l-1.76,1.76-24.67-1.76c10.57,9.1,13.8,21.73,13.8,32.89,0,27.32-20.85,50.82-57.57,50.82a88.67,88.67,0,0,1-12.92-.88Zm.88,28.49c-10.28,10.28-17.33,18.8-17.33,32,0,10.86,8.82,29.08,38.78,29.08,24.08,0,35.54-12.93,35.54-26.73,0-19.39-17.33-23.8-35.84-28.79Zm18.51-126.3c-19.09,0-31.14,14.09-31.14,33.48,0,14.39,7.35,32.6,31.14,32.6,24.09,0,30.25-18.79,30-32.6-.33-15.86-8-33.48-30-33.48Z"/><path class="cls-1" d="M1810.83,1473.1a30.36,30.36,0,0,0-11.75-2.64,21.83,21.83,0,0,0-12.34,3.82c-12,8.51-12,21.44-12,52,0,33.19.88,50.52,2,67l-1.47,2c-13.8,0-17,.3-31.13.88l-1.47-1.76c.29-22.32.59-42.59.59-69.91,0-47-.88-59-2.65-76.07l1.77-2.06c11.16-2,18.21-3.52,30.54-5.87l1.77,1.76-1.47,25c3.52-9.4,10.87-28.2,35.83-28.2a30.42,30.42,0,0,1,8.23.88l1.17,1.76c-2.93,14.1-3.52,17-5.58,30Z"/><path class="cls-1" d="M1981.77,1534.75c0,36.43.3,39.66,1.77,58.75l-1.47,1.47c-13.81.29-16.16.59-29.67,1.17l-1.17-1.76.29-10.57c-5.58,4.4-18.8,15-41.12,15-29.38,0-49.94-20-49.94-49.06,0-39.36,32.9-52,85.77-58.15l5-.59c0-7.93,0-13.51-2.65-18.21-2.93-5.29-9.69-10.87-24.38-10.87-19.09,0-32.31,5.87-44.64,11.16l-2.35-1.47c.58-13.51.58-15.27.88-21.44l1.76-1.76c16.45-5.88,33.49-9.7,50.82-9.7,21.73,0,42.88,7.35,49,30.26,2,8.22,2,24.38,2,36.71Zm-32.89-21.44c-29.67,4.41-57.28,8.52-57.28,34.66,0,1.47,0,26.73,27.9,26.73a45.84,45.84,0,0,0,32-12.92v-49Z"/><path class="cls-1" d="M2119.24,1572.09c-.88,9.69-.88,11.75-1.18,20.27l-1.46,1.76a79.63,79.63,0,0,1-22,2.64c-7,0-25.56,0-34.66-15.27-5.29-8.52-5.29-15.57-5.29-50.23l.59-64.62c-10.29,0-10.58.29-21.15.59l-1.18-1.77c.59-9.4.59-11.75.59-21.14l1.76-1.77c6.46,0,10.28.3,20,0-.3-6.17-.3-12.63-.3-18.8q-.43-8.37-.88-16.74l1.47-2.06c13.22-3.23,16.45-4.11,30-8.22l2.06,1.47c-.88,19.38-1.18,23.2-1.18,44.65,12.34-.3,15.86-.3,32.61-.89l1.35,1.79c-.58,7.63-.88,10.87-.88,20.85l-1.47,1.76c-14.68-.29-16.44-.58-32-.58l-.59,54.63c.29,3.53.29,20.27.29,24.38,0,21.44,2.65,28.2,17.33,28.2a40.2,40.2,0,0,0,14.1-2.64Z"/><path class="cls-1" d="M2295.18,1559.46c-1.47,11.75-1.76,14.68-2.35,26.14l-1.76,2.06c-5,2.64-20.86,11.16-47,11.16-48.17,0-78.43-27.61-78.43-78.72,0-54.64,32.9-81.37,71.38-81.37,23.21,0,39.36,9.7,48.17,20.27,16.75,20,16.16,49.06,15.87,62l-2.06,1.76c-45.82-.29-53.75-.29-101.93,0,.3,10.28,1.18,24.68,11.17,36.72,12,14.39,28.78,15.86,37.89,15.86a76.65,76.65,0,0,0,25.55-4.41,73.85,73.85,0,0,0,21.15-12.92Zm-27.32-76.71c-5.87-16.15-18.8-22.91-32-22.91-16.45,0-35.84,11.16-38.78,40.54,35.55.29,46.71,0,73.73-.3C2270.51,1496,2270.21,1489.55,2267.86,1482.75Z"/><path class="cls-1" d="M2460.26,1367.06c15-2.64,17.91-3.23,31.13-6.17l2.06,1.77c-2.06,40.83-2.35,113.67-2.35,143,0,45.53,1.17,67.27,2.35,87.54l-1.47,2c-12.93,0-16.45.3-30,.88l-2.06-1.76.59-10.87c-7,5.29-19.09,14.69-40.54,14.69-39.06,0-66.09-30.84-66.09-75.49,0-32,13.52-52.28,25.85-63.15,21.45-19.39,49.35-20.27,64.62-20.27,6.17,0,9.11,0,17,.59.29-36.42-1.17-54-2.64-71.08Zm.29,96.64c-5-.29-8.52-.88-14.69-.88-9.1,0-28.49.59-42.59,13.81-6.46,6.16-17,20-17,46.11,0,16.74,4.69,28.79,10.86,36.13,5.29,6.17,15,13.22,30.26,13.22,17.92,0,28.78-9.4,32.9-12.93.55-38.48.55-47.29.26-95.41Z"/><path class="cls-1" d="M2843.57,1593.24l-1.47,2c-17.33,0-18.5,0-36.13.88l-2.35-2.05c-17.33-30.84-34.66-61.69-52.28-92.53l-46.41-82.84,2.94,100.75c.29,12.34.88,24.38,1.17,36.72.88,24.38.88,25,1.47,37l-1.76,2c-12.93,0-14.1,0-28.2.88l-1.76-2.05c1.17-27.91,1.46-56.1,1.46-84,0-40-.29-80.19-1.76-120.14l1.47-2c18.21-.29,21.15-.29,37.89-.88l2.94,2c20,35.84,40.53,73.14,59.92,107.21l36.42,64.33-2.35-97.52c-1.17-46.11-1.47-52.87-2.64-73.14l1.76-2c13.22,0,16.16-.29,27.91-.88l1.76,2c-.59,35.84-1.18,72.56-1.18,108.68,0,27.62.3,55.52.89,83.13Z"/><path class="cls-1" d="M3036.84,1559.46c-1.47,11.75-1.76,14.68-2.35,26.14l-1.76,2.06c-5,2.64-20.86,11.16-47,11.16-48.17,0-78.42-27.61-78.42-78.72,0-54.64,32.89-81.37,71.37-81.37,23.21,0,39.36,9.7,48.18,20.27,16.74,20,16.15,49.06,15.86,62l-2.06,1.76c-45.82-.29-53.75-.29-101.92,0,.29,10.28,1.17,24.68,11.16,36.72,12,14.39,28.78,15.86,37.89,15.86a76.65,76.65,0,0,0,25.55-4.41,73.85,73.85,0,0,0,21.15-12.92Zm-27.32-76.71c-5.87-16.15-18.79-22.91-32-22.91-16.45,0-35.84,11.16-38.77,40.54,35.54.29,46.7,0,73.72-.3C3012.17,1496,3011.87,1489.55,3009.52,1482.75Z"/><path class="cls-1" d="M3170.78,1572.09c-.88,9.69-.88,11.75-1.17,20.27l-1.47,1.76a79.63,79.63,0,0,1-22,2.64c-7,0-25.56,0-34.66-15.27-5.29-8.52-5.29-15.57-5.29-50.23l.59-64.62c-10.28,0-10.58.29-21.15.59l-1.18-1.77c.59-9.4.59-11.75.59-21.14l1.76-1.77c6.47,0,10.28.3,20,0-.3-6.17-.3-12.63-.3-18.8q-.43-8.37-.88-16.74l1.47-2.06c13.22-3.23,16.45-4.11,30-8.22l2.06,1.47c-.88,19.38-1.18,23.2-1.18,44.65,12.34-.3,15.86-.3,32.61-.89l1.47,1.77c-.59,7.63-.89,10.87-.89,20.85l-1.46,1.76c-14.69-.29-16.45-.58-32-.58l-.59,54.63c.3,3.53.3,20.27.3,24.38,0,21.44,2.64,28.2,17.33,28.2a40.15,40.15,0,0,0,14.09-2.64Z"/><path class="cls-1" d="M3392.84,1595c-19.68.29-22,.29-40,1.17l-2.06-2.05c-3.52-17.92-9.1-41.71-14.09-62.57l-17-70.49-17.35,72.26c-8.81,35.54-11.75,47-14.39,59.92l-1.77,1.76c-20.56.29-22,.29-40.53,1.17l-1.76-2.05c-12.93-52.58-35-129.54-41.13-148.92l1.18-2.06c14.1-.88,17.92-.88,32-2.35l1.76,1.76c1.76,9.7,3.82,18.8,16.45,73.14l14.1,60.51,19.09-79c8.81-39.07,9.4-42.89,11.16-52.29l2.06-2.05c17.33,0,22.32,0,41.71-.89l1.76,2.06c4.11,20.27,11.16,48.47,16.45,70.79l15.57,62.27,16.44-68.44,7-30.84c5-20,5.58-22.32,7.35-33.48l2-1.77c4.7,0,9.7.3,14.4.3a50.76,50.76,0,0,0,6.75-.3h6.46l1.77,1.77c-5.58,16.74-31.43,98.69-43.48,148.92Z"/><path class="cls-1" d="M3622,1545.06c-3.24,14.4-9.4,25.85-19.1,35.55-12.92,12.92-30.25,17.91-50.81,17.91-26.44,0-43.18-10-52.58-19.68-20-20.26-20.27-50.22-20.27-59.92,0-11.16.59-39.94,20.27-59.62,8.22-8.52,25.26-20.57,54.63-20.57,20,0,39.66,6.47,52.58,21.15,13.51,15.57,17.33,36.13,17.92,56.69C3624.59,1526.56,3624,1536.25,3622,1545.06Zm-37.9-67.26c-5.58-9.11-15-16.74-31.42-16.74-5.59,0-22,.59-32.32,17-7.93,12-8.81,29.08-8.81,41.42,0,11.75.3,41.42,23.5,53.17a39.33,39.33,0,0,0,17.33,3.81c10.87,0,25-3.52,33.49-19.68,6.75-13.21,7-32.89,6.75-39.06,0-7.32-1.18-27-8.52-39.92Z"/><path class="cls-1" d="M3755.88,1473.1a30.13,30.13,0,0,0-11.74-2.64,21.83,21.83,0,0,0-12.34,3.82c-12,8.51-12,21.44-12,52,0,33.19.88,50.52,2,67l-1.47,2c-13.8,0-17,.3-31.13.88l-1.47-1.76c.29-22.32.59-42.59.59-69.91,0-47-.88-59-2.65-76.07l1.77-2.06c11.16-2,18.21-3.52,30.54-5.87l1.77,1.76-1.47,25c3.52-9.4,10.86-28.2,35.83-28.2a30.42,30.42,0,0,1,8.23.88l1.17,1.76c-2.94,14.1-3.52,17-5.58,30Z"/><path class="cls-1" d="M3941.52,1595h-12.63a216.2,216.2,0,0,0-22.62,1.17l-2.35-1.76c-15.57-26.14-45.23-68.73-58.16-86.94l.59,36.13c.29,27,1.18,38.77,1.76,49.64l-1.47,2c-15,.3-17,.3-30.54.88l-1.77-1.76c.59-18.8,1.18-39.65,1.18-82.83,0-15.28,0-30.84-.29-46.12,0-54.34-.89-69.32-2.94-96.34l1.76-2.06c13.51-2.35,16.45-2.93,31.43-5.87l2.06,1.76c-.89,30.25-1.47,44.35-1.47,82.25V1506c16.74-20.27,33.78-40.24,49.34-61.68l2.65-1.77c8.81-.29,16.45-.29,32.31-.88l.88,2.65c-25.85,29.07-29.67,33.77-51.7,59.33,27.61,39.65,34.66,49.64,63.15,88.41Z"/><path class="cls-1" d="M4241.12,1545.06c-3.23,14.4-9.4,25.85-19.09,35.55-12.92,12.92-30.25,17.91-50.81,17.91-26.44,0-43.18-10-52.58-19.68-20-20.26-20.27-50.22-20.27-59.92,0-11.16.59-39.94,20.27-59.62,8.22-8.52,25.26-20.57,54.63-20.57,20,0,39.66,6.47,52.58,21.15,13.51,15.57,17.33,36.13,17.92,56.69C4243.77,1526.56,4243.18,1536.25,4241.12,1545.06Zm-37.89-67.26c-5.58-9.11-15-16.74-31.43-16.74-5.58,0-22,.59-32.31,17-7.93,12-8.81,29.08-8.81,41.42,0,11.75.29,41.42,23.5,53.17a39.33,39.33,0,0,0,17.33,3.81c10.87,0,25-3.52,33.48-19.68,6.76-13.21,7-32.89,6.76-39.06C4211.75,1510.4,4210.58,1490.75,4203.23,1477.8Z"/><path class="cls-1" d="M4341.58,1595.29c-13.52,0-16.16,0-31.73.88l-1.46-2.05c1.46-30.84,1.46-62.57,1.46-93.7,0-15.57,0-20.86-.29-33.78-7.34.29-14.69.29-20.56.29l-1.76-1.76c.58-8.23.88-11.16,1.17-21.15l1.76-1.76c8.82.29,14.69.59,18.8.59l-.29-19.39c0-14.69,0-18.21.88-23.5,6.76-34.07,43.18-34.07,51.4-34.07,4.41,0,7.35.29,11.17.59l1.46,2c-1.17,8.23-1.46,12-2.05,21.15l-2.06,1.47a32.22,32.22,0,0,0-7.93-1.18c-6.17,0-12.92,1.18-17.62,8.82-4.7,7.34-4.7,15.56-4.41,35.24v8.82c.59,0,26.14-.59,29.08-.59l1.47,1.76c-.59,9.4-.88,11.75-1.18,20.86l-1.76,1.76c-12.63-.3-15.27-.3-27-.3,0,39.07.29,78.43,2.35,117.5,0,2.93.29,6.17.58,9.4Z"/><path class="cls-1" d="M4682.89,1389.39c-18.51,21.73-52,61.68-75.49,91.35q41.42,56.84,86.35,111.32l-1.76,3.23c-17.33,0-19.09,0-37.89.88l-2.64-1.76c-16.16-23.79-71.67-97.22-79.31-106.92,0,14.69.29,69.91,2.35,105.75l-1.76,2c-16.75,0-17.33,0-32.61.88l-1.47-2.05c1.18-32.31,1.18-38.77,1.18-119.84,0-43.77-.59-61.1-2.35-84.31l1.76-2c15.86-.29,18.21-.29,32.9-.88l1.47,2c-1.47,45.24-1.47,54.05-1.47,93.7,2.35-2.64,4.7-5.58,7.05-8.51,1.47-1.77,52.87-65.51,66.09-84.6l2.35-1.76c16.45,0,17.92-.29,33.49-.88Z"/><path class="cls-1" d="M4859.71,1559.46c-1.47,11.75-1.76,14.68-2.35,26.14l-1.76,2.06c-5,2.64-20.85,11.16-47,11.16-48.17,0-78.42-27.61-78.42-78.72,0-54.64,32.89-81.37,71.37-81.37,23.21,0,39.36,9.7,48.18,20.27,16.74,20,16.15,49.06,15.86,62l-2.06,1.76c-45.82-.29-53.75-.29-101.92,0,.29,10.28,1.17,24.68,11.16,36.72,12,14.39,28.78,15.86,37.89,15.86a76.65,76.65,0,0,0,25.55-4.41,73.85,73.85,0,0,0,21.15-12.92Zm-27.32-76.71c-5.88-16.15-18.8-22.91-32-22.91-16.45,0-35.84,11.16-38.77,40.54,35.54.29,46.7,0,73.72-.3C4835,1496,4834.75,1489.55,4832.39,1482.75Z"/><path class="cls-1" d="M4994.83,1473.1a30.36,30.36,0,0,0-11.75-2.64,21.83,21.83,0,0,0-12.34,3.82c-12,8.51-12,21.44-12,52,0,33.19.88,50.52,2,67l-1.47,2c-13.8,0-17,.3-31.13.88l-1.47-1.76c.29-22.32.59-42.59.59-69.91,0-47-.88-59-2.65-76.07l1.77-2.06c11.16-2,18.21-3.52,30.54-5.87l1.77,1.76-1.47,25c3.52-9.4,10.87-28.2,35.83-28.2a30.42,30.42,0,0,1,8.23.88l1.17,1.76c-2.93,14.1-3.52,17-5.58,30Z"/><path class="cls-1" d="M5165.78,1534.75c0,36.43.29,39.66,1.76,58.75l-1.47,1.47c-13.81.29-16.16.59-29.67,1.17l-1.17-1.76.29-10.57c-5.58,4.4-18.8,15-41.12,15-29.37,0-49.94-20-49.94-49.06,0-39.36,32.9-52,85.77-58.15l5-.59c0-7.93,0-13.51-2.65-18.21-2.93-5.29-9.69-10.87-24.38-10.87-19.09,0-32.31,5.87-44.64,11.16l-2.35-1.47c.58-13.51.58-15.27.88-21.44l1.76-1.76c16.45-5.88,33.49-9.7,50.82-9.7,21.73,0,42.88,7.35,49.05,30.26,2.06,8.22,2.06,24.38,2.06,36.71Zm-32.9-21.44c-29.67,4.41-57.28,8.52-57.28,34.66,0,1.47,0,26.73,27.9,26.73a45.82,45.82,0,0,0,32-12.92v-49Z"/><path class="cls-1" d="M5267.7,1595c-14.1.29-17,.59-30.84,1.17l-1.47-2.05c.59-20.86,1.47-47.29,1.47-103.69,0-40.53,0-84-2.94-121.6l1.47-1.77c14.39-2.35,17.33-2.93,32-6.17l1.76,2.06c-2.06,38.48-2.06,77.25-2.06,115.73,0,64.33.88,86.65,2.35,114.56Z"/><path class="cls-1" d="M5451,1534.75c0,36.43.29,39.66,1.76,58.75l-1.47,1.47c-13.8.29-16.15.59-29.67,1.17l-1.17-1.76.29-10.57c-5.58,4.4-18.8,15-41.12,15-29.37,0-49.93-20-49.93-49.06,0-39.36,32.89-52,85.77-58.15l5-.59c0-7.93,0-13.51-2.64-18.21-2.94-5.29-9.7-10.87-24.38-10.87-19.1,0-32.31,5.87-44.65,11.16l-2.35-1.47c.59-13.51.59-15.27.88-21.44l1.76-1.76c16.45-5.88,33.49-9.7,50.82-9.7,21.73,0,42.88,7.35,49,30.26,2.06,8.22,2.06,24.38,2.06,36.71Zm-32.9-21.44c-29.67,4.41-57.28,8.52-57.28,34.66,0,1.47,0,26.73,27.91,26.73a45.82,45.82,0,0,0,32-12.92v-49Z"/><path class="cls-1" d="M5673.39,1389.09c-.88,19.68-1.47,42.89-1.47,93.41,0,56.4.59,80.48,2.35,110.74l-1.76,2c-12.93.3-17,.3-32.61.88l-1.76-2.05c.59-17.92,1.17-33.49,1.17-71.38,0-44.35,0-88.41-2.05-132.47l1.47-2.35c12.92,0,17.62,0,32.6-.88Z"/><path class="cls-1" d="M5879.83,1571.21c-.88,10-.88,12-1.47,22l-2.06,2c-57.27,0-66.38.3-122.19.88l-1.47-2.05c.88-23.21,1.76-39.07,1.76-92.82,0-49.35,0-77.55-2-111.33l1.76-2c57.87-.29,69.32-.29,123.37-.88l1.76,2c-.88,8.82-1.47,12.34-2.06,22.91l-1.76,2.06c-37.89-1.17-50.52-1.17-87.82-1.47-.88,27-.88,35.54-.88,62.57,36.12.29,47.29,0,83.12-.59l1.47,2.06a205.8,205.8,0,0,0-1.47,22.61l-1.76,2.06c-34.07-.88-41.42-.88-81.36-.88-.59,34.07-.3,42.29,0,70.2,44.35,0,53.45,0,91.35-1.47Z"/><path class="cls-1" d="M6068.39,1571.21c-.88,10-.88,12-1.47,22l-2.06,2c-57.27,0-66.38.3-122.19.88l-1.47-2.05c.89-23.21,1.77-39.07,1.77-92.82,0-49.35,0-77.55-2.06-111.33l1.76-2c57.87-.29,69.32-.29,123.37-.88l1.76,2c-.88,8.82-1.47,12.34-2.05,22.91L6064,1414c-37.89-1.17-50.52-1.17-87.82-1.47-.88,27-.88,35.54-.88,62.57,36.13.29,47.29,0,83.12-.59l1.47,2.06a208.29,208.29,0,0,0-1.47,22.61l-1.76,2.06c-34.07-.88-41.42-.88-81.36-.88-.59,34.07-.3,42.29,0,70.2,44.35,0,53.46,0,91.35-1.47Z"/><path class="cls-1" d="M6257,1571.21c-.88,10-.88,12-1.47,22l-2,2c-57.28,0-66.38.3-122.19.88l-1.47-2.05c.88-23.21,1.76-39.07,1.76-92.82,0-49.35,0-77.55-2.06-111.33l1.77-2c57.86-.29,69.32-.29,123.36-.88l1.77,2c-.89,8.82-1.47,12.34-2.06,22.91l-1.76,2.06c-37.89-1.17-50.52-1.17-87.83-1.47-.88,27-.88,35.54-.88,62.57,36.13.29,47.29,0,83.13-.59l1.47,2.06a203.36,203.36,0,0,0-1.47,22.61l-1.77,2.06c-34.07-.88-41.41-.88-81.36-.88-.59,34.07-.29,42.29,0,70.2,44.35,0,53.46,0,91.35-1.47Z"/><path class="cls-1" d="M6509.28,1477.8c21.45,9.4,49.94,21.74,49.94,59.33,0,32.9-24.38,62.57-75.49,62.57-31.14,0-51.11-9.4-58.16-12.93l-1.18-2c1.18-10.28,1.47-15.86,2.35-27l2.94-1.18c7.34,5,24.38,17.33,51.7,17.33,30.25,0,42.88-15.57,42.88-33.19,0-20.56-17-28.49-36.13-35.84l-14.68-6.46c-20.86-9.69-48.76-22.32-48.76-58.16,0-10.87,2.93-22,9.1-30.84,13.52-19.39,37.9-25.85,61.69-25.85,23.2,0,37.3,4.41,52.87,9.4l1.47,2.35c-1.18,11.16-1.47,15.28-2.35,25.85l-2.35,1.17c-12.63-6.46-26.44-13.51-48.47-13.51-24.38,0-39.65,11.46-39.65,28.79,0,13.22,8.81,19.38,15,23.2,3.82,2.35,5,2.94,22.62,10.58Z"/><path class="cls-1" d="M6688.16,1572.09c-.88,9.69-.88,11.75-1.17,20.27l-1.47,1.76a79.63,79.63,0,0,1-22,2.64c-7.05,0-25.56,0-34.66-15.27-5.29-8.52-5.29-15.57-5.29-50.23l.59-64.62c-10.28,0-10.57.29-21.15.59l-1.17-1.77c.58-9.4.58-11.75.58-21.14l1.77-1.77c6.46,0,10.28.3,20,0-.29-6.17-.29-12.63-.29-18.8L6623,1407l1.47-2.06c13.22-3.23,16.45-4.11,30-8.22l2.06,1.47c-.88,19.38-1.18,23.2-1.18,44.65,12.34-.3,15.87-.3,32.61-.89l1.42,1.79c-.59,7.63-.88,10.87-.88,20.85l-1.47,1.76c-14.69-.29-16.45-.58-32-.58l-.59,54.63c.3,3.53.3,20.27.3,24.38,0,21.44,2.64,28.2,17.33,28.2a40.2,40.2,0,0,0,14.1-2.64Z"/><path class="cls-1" d="M6872,1443.43c-.59,22.33-.89,43.18-.89,67,0,36.13.89,57.87,1.47,70.5,0,4.11.3,8.22.59,12.34L6872,1595c-14.1.29-16.45.59-30,1.17l-1.76-1.76.3-12.33c-6.47,4.69-22,16.74-46.12,16.74-11.46,0-24.09-2.65-33.49-10-18.79-15.27-18.79-40.24-19.09-63.15v-18.21c-.59-42-.59-46.71-1.47-62.57l1.47-2.05c13.81-.3,16.45-.3,30.26-1.47l1.76,2-1.18,64.33c0,7.93-.29,13.81,0,27.91.3,12.33.89,38.77,30.55,38.77,17.33,0,29.67-9.69,36.72-15.28.29-15.86.29-29.37.29-46.41,0-40.82-.29-49-2.05-68.14l1.76-2.06c13.51-.29,16.74-.29,30.25-1.17Z"/><path class="cls-1" d="M7041.22,1367.06c15-2.64,17.92-3.23,31.14-6.17l2.05,1.77c-2.05,40.83-2.35,113.67-2.35,143,0,45.53,1.18,67.27,2.35,87.54l-1.47,2c-12.92,0-16.44.3-30,.88l-2-1.76.59-10.87c-7,5.29-19.1,14.69-40.54,14.69-39.07,0-66.09-30.84-66.09-75.49,0-32,13.51-52.28,25.85-63.15,21.44-19.39,49.35-20.27,64.62-20.27,6.17,0,9.11,0,17,.59.29-36.42-1.18-54-2.65-71.08Zm.3,96.64c-5-.29-8.52-.88-14.69-.88-9.11,0-28.49.59-42.59,13.81-6.46,6.16-17,20-17,46.11,0,16.74,4.7,28.79,10.87,36.13,5.29,6.17,15,13.22,30.25,13.22,17.92,0,28.79-9.4,32.9-12.93.55-38.48.55-47.29.26-95.41Z"/><path class="cls-1" d="M7265.39,1559.46c-1.47,11.75-1.77,14.68-2.35,26.14l-1.77,2.06c-5,2.64-20.85,11.16-47,11.16-48.18,0-78.43-27.61-78.43-78.72,0-54.64,32.9-81.37,71.38-81.37,23.2,0,39.36,9.7,48.17,20.27,16.74,20,16.15,49.06,15.86,62l-2,1.76c-45.83-.29-53.76-.29-101.93,0,.29,10.28,1.17,24.68,11.16,36.72,12,14.39,28.79,15.86,37.89,15.86a76.76,76.76,0,0,0,25.56-4.41,73.85,73.85,0,0,0,21.15-12.92ZM7238,1482.75c-5.88-16.15-18.8-22.91-32-22.91-16.45,0-35.83,11.16-38.77,40.54,35.54.29,46.7,0,73.73-.3C7240.66,1496,7240.39,1489.55,7238,1482.75Z"/><path class="cls-1" d="M7462.13,1595c-14.09.29-15.86.29-29.37,1.17l-2.06-2.05c0-3.23.3-6.46.3-9.7.29-14.39.29-28.78.29-43.17,0-45.24-.29-48.18-1.76-54.34-5.58-22.33-22.32-22.33-26.44-22.33-17.62,0-31.13,10.28-39.06,16.45-.3,51.11.29,77.84,2.35,112.21l-1.77,1.76c-14.39.29-16.74.29-30.84,1.17l-1.47-2.05c.3-16.45.89-32.31.89-54,0-47-2.06-72-3.53-91.64l1.76-2.06c14.69-2.64,17.33-3.23,31.14-5.87l2,2-.29,15.28c7.64-5.29,25.85-18.22,51.7-18.22,7.34,0,16.45,1.18,24.38,5.59a39.78,39.78,0,0,1,17,19.09c3.82,8.81,4.12,17.62,4.41,35.83v34.37c.88,34.37,1.18,47.59,2.06,58.75Z"/><path class="cls-1" d="M7599.89,1572.09c-.88,9.69-.88,11.75-1.17,20.27l-1.47,1.76a79.63,79.63,0,0,1-22,2.64c-7.05,0-25.56,0-34.66-15.27-5.29-8.52-5.29-15.57-5.29-50.23l.59-64.62c-10.28,0-10.58.29-21.15.59l-1.18-1.77c.59-9.4.59-11.75.59-21.14l1.76-1.77c6.47,0,10.28.3,20,0-.3-6.17-.3-12.63-.3-18.8q-.44-8.37-.88-16.74l1.47-2.06c13.22-3.23,16.45-4.11,30-8.22l2.06,1.47c-.88,19.38-1.18,23.2-1.18,44.65,12.34-.3,15.87-.3,32.61-.89l1.47,1.77c-.59,7.63-.88,10.87-.88,20.85l-1.47,1.76c-14.69-.29-16.45-.58-32-.58l-.59,54.63c.3,3.53.3,20.27.3,24.38,0,21.44,2.64,28.2,17.33,28.2a40.2,40.2,0,0,0,14.1-2.64Z"/><path class="cls-1" d="M7715.91,1506c11.75,3.82,38.48,12.92,38.48,44.06a43.79,43.79,0,0,1-16.45,34.66c-15.57,13.22-36.42,14.1-47,14.1a108.12,108.12,0,0,1-40.24-7.35l-4.4-1.76-1.47-2.64c1.17-11.46,1.17-12.93,1.76-24.68l2.94-.88c5.28,4.12,18.21,14.1,40.83,14.1,23.2,0,31.72-12.92,31.72-22,0-13.51-12.63-17.91-30.55-23.79l-9.4-3.23c-12-3.82-38.48-12.34-38.48-42.59s26.44-45.25,59.34-45.25a111.91,111.91,0,0,1,42.3,8.23l1.46,2c-1.17,10.87-1.46,12-2.35,23.21l-2.64,1.17c-7.34-4.7-18.8-11.74-37.89-11.74a47.58,47.58,0,0,0-12.63,1.46c-8.81,2.35-16.16,8.52-16.16,17.63,0,12.63,12.05,16.45,30.26,22Z"/><path class="cls-1" d="M49.3,1175.52V0H368.61V1175.52Z"/><path class="cls-1" d="M662.66,1175.52V0h709.22V226.94H982V460.87h341.34V687.75H982V948.58h405.52v226.91Z"/><path class="cls-1" d="M1670.46,1175.52V0h709.22V226.94H1989.77V460.87h341.34V687.75H1989.77V948.58h405.52v226.91Z"/><path class="cls-1" d="M2678.25,1175.52V0h709.23V226.94H2997.57V460.87H3338.9V687.75H2997.57V948.58h405.52v226.91Z"/><path class="cls-1" d="M4062.46,1175.52V0h319.31V948.61h346.55v226.91Z"/><path class="cls-1" d="M4999.8,1175.52V0h319.31V1175.52Z"/><path class="cls-1" d="M5634,1175.52V0h348.56l256.73,693.51L6243.36,0h308.78V1175.52H6204.69L5946.27,449.34l-3.51,726.18Z"/><path class="cls-1" d="M6851.64,1175.52V0h308.75V481.68L7377.12,0H7715.2L7449.8,487l267.14,688.52H7377.16L7235,755.14l-74.55,97v323.41Z"/></g></g></svg>