<svg xmlns="http://www.w3.org/2000/svg" viewBox="0 0 512 512">
  <rect width="512" height="512" fill="#000000"/>
  <g transform="translate(30, 156) scale(0.058)">
    <path fill="#FFFFFF" d="M49.3,1175.52V0H368.61V1175.52Z"/>
    <path fill="#FFFFFF" d="M662.66,1175.52V0h709.22V226.94H982V460.87h341.34V687.75H982V948.58h405.52v226.91Z"/>
    <path fill="#FFFFFF" d="M1670.46,1175.52V0h709.22V226.94H1989.77V460.87h341.34V687.75H1989.77V948.58h405.52v226.91Z"/>
    <path fill="#FFFFFF" d="M2678.25,1175.52V0h709.23V226.94H2997.57V460.87H3338.9V687.75H2997.57V948.58h405.52v226.91Z"/>
    <path fill="#FFFFFF" d="M4062.46,1175.52V0h319.31V948.61h346.55v226.91Z"/>
    <path fill="#FFFFFF" d="M4999.8,1175.52V0h319.31V1175.52Z"/>
    <path fill="#FFFFFF" d="M5634,1175.52V0h348.56l256.73,693.51L6243.36,0h308.78V1175.52H6204.69L5946.27,449.34l-3.51,726.18Z"/>
    <path fill="#FFFFFF" d="M6851.64,1175.52V0h308.75V481.68L7377.12,0H7715.2L7449.8,487l267.14,688.52H7377.16L7235,755.14l-74.55,97v323.41Z"/>
  </g>
</svg>
